<mxfile host="app.diagrams.net" agent="Mozilla/5.0 (Windows NT 10.0; Win64; x64) AppleWebKit/537.36 (KHTML, like Gecko) Chrome/131.0.0.0 Safari/537.36" version="24.9.3">
  <diagram name="Page-1" id="rwp8s4dTEOleVdyEwEiT">
    <mxGraphModel dx="2035" dy="627" grid="1" gridSize="10" guides="1" tooltips="1" connect="1" arrows="1" fold="1" page="1" pageScale="1" pageWidth="850" pageHeight="1100" math="0" shadow="0">
      <root>
        <mxCell id="0" />
        <mxCell id="1" parent="0" />
        <mxCell id="yvOlFNEoJNMqxn5hY2YB-7" value="" style="edgeStyle=orthogonalEdgeStyle;rounded=0;orthogonalLoop=1;jettySize=auto;html=1;" edge="1" parent="1" source="yvOlFNEoJNMqxn5hY2YB-2" target="yvOlFNEoJNMqxn5hY2YB-3">
          <mxGeometry relative="1" as="geometry" />
        </mxCell>
        <mxCell id="yvOlFNEoJNMqxn5hY2YB-2" value="3D Scene" style="rounded=1;whiteSpace=wrap;html=1;fillColor=#d5e8d4;strokeColor=#82b366;" vertex="1" parent="1">
          <mxGeometry x="-320" y="400" width="120" height="40" as="geometry" />
        </mxCell>
        <mxCell id="yvOlFNEoJNMqxn5hY2YB-8" value="" style="edgeStyle=orthogonalEdgeStyle;rounded=0;orthogonalLoop=1;jettySize=auto;html=1;" edge="1" parent="1" source="yvOlFNEoJNMqxn5hY2YB-11" target="yvOlFNEoJNMqxn5hY2YB-4">
          <mxGeometry relative="1" as="geometry" />
        </mxCell>
        <mxCell id="yvOlFNEoJNMqxn5hY2YB-3" value="Opaque Rendering" style="rounded=1;whiteSpace=wrap;html=1;fillColor=#fff2cc;strokeColor=#d6b656;" vertex="1" parent="1">
          <mxGeometry x="-150" y="400" width="120" height="40" as="geometry" />
        </mxCell>
        <mxCell id="yvOlFNEoJNMqxn5hY2YB-9" value="" style="edgeStyle=orthogonalEdgeStyle;rounded=0;orthogonalLoop=1;jettySize=auto;html=1;" edge="1" parent="1" target="yvOlFNEoJNMqxn5hY2YB-5">
          <mxGeometry relative="1" as="geometry">
            <mxPoint x="300" y="420" as="sourcePoint" />
          </mxGeometry>
        </mxCell>
        <mxCell id="yvOlFNEoJNMqxn5hY2YB-4" value="Transparency &amp;amp; Volume Rendering" style="rounded=1;whiteSpace=wrap;html=1;fillColor=#f8cecc;strokeColor=#b85450;" vertex="1" parent="1">
          <mxGeometry x="190" y="400" width="120" height="40" as="geometry" />
        </mxCell>
        <mxCell id="yvOlFNEoJNMqxn5hY2YB-10" value="" style="edgeStyle=orthogonalEdgeStyle;rounded=0;orthogonalLoop=1;jettySize=auto;html=1;" edge="1" parent="1" source="yvOlFNEoJNMqxn5hY2YB-5" target="yvOlFNEoJNMqxn5hY2YB-6">
          <mxGeometry relative="1" as="geometry" />
        </mxCell>
        <mxCell id="yvOlFNEoJNMqxn5hY2YB-5" value="Post Processing" style="rounded=1;whiteSpace=wrap;html=1;fillColor=#e1d5e7;strokeColor=#9673a6;" vertex="1" parent="1">
          <mxGeometry x="360" y="400" width="120" height="40" as="geometry" />
        </mxCell>
        <mxCell id="yvOlFNEoJNMqxn5hY2YB-6" value="Screen" style="rounded=1;whiteSpace=wrap;html=1;fillColor=#ffe6cc;strokeColor=#d79b00;" vertex="1" parent="1">
          <mxGeometry x="530" y="400" width="120" height="40" as="geometry" />
        </mxCell>
        <mxCell id="yvOlFNEoJNMqxn5hY2YB-12" value="" style="edgeStyle=orthogonalEdgeStyle;rounded=0;orthogonalLoop=1;jettySize=auto;html=1;" edge="1" parent="1" source="yvOlFNEoJNMqxn5hY2YB-3" target="yvOlFNEoJNMqxn5hY2YB-11">
          <mxGeometry relative="1" as="geometry">
            <mxPoint x="-30" y="420" as="sourcePoint" />
            <mxPoint x="195" y="420" as="targetPoint" />
          </mxGeometry>
        </mxCell>
        <mxCell id="yvOlFNEoJNMqxn5hY2YB-11" value="Sky Rendering" style="rounded=1;whiteSpace=wrap;html=1;fillColor=#dae8fc;strokeColor=#6c8ebf;" vertex="1" parent="1">
          <mxGeometry x="20" y="400" width="120" height="40" as="geometry" />
        </mxCell>
      </root>
    </mxGraphModel>
  </diagram>
</mxfile>
